<?xml version="1.0" encoding="UTF-8"?>
<!DOCTYPE svg PUBLIC "-//W3C//DTD SVG 1.1//EN" "http://www.w3.org/Graphics/SVG/1.1/DTD/svg11.dtd">
<svg xmlns="http://www.w3.org/2000/svg" version="1.1" width="119px" height="123px" style="shape-rendering:geometricPrecision; text-rendering:geometricPrecision; image-rendering:optimizeQuality; fill-rule:evenodd; clip-rule:evenodd" xmlns:xlink="http://www.w3.org/1999/xlink">
<g><path style="opacity:0.831" fill="#fefffe" d="M 49.5,-0.5 C 51.5,-0.5 53.5,-0.5 55.5,-0.5C 56.0434,0.74213 56.3767,2.07546 56.5,3.5C 54.8399,9.96488 54.0066,16.6315 54,23.5C 53.3109,22.6433 52.4776,21.9767 51.5,21.5C 50.9725,15.3288 49.9725,9.32883 48.5,3.5C 48.6233,2.07546 48.9566,0.74213 49.5,-0.5 Z"/></g>
<g><path style="opacity:0.713" fill="#fefffe" d="M 76.5,-0.5 C 78.1667,-0.5 79.8333,-0.5 81.5,-0.5C 84.3319,2.6807 83.9985,5.51403 80.5,8C 75.3324,6.81775 69.9991,6.31775 64.5,6.5C 64.8282,11.8746 64.4948,17.2079 63.5,22.5C 62.5,23.1667 61.5,23.8333 60.5,24.5C 59.201,17.1394 59.201,9.80606 60.5,2.5C 65.4671,1.67105 70.4671,1.17105 75.5,1C 76.056,0.617425 76.3893,0.117425 76.5,-0.5 Z"/></g>
<g><path style="opacity:0.798" fill="#fefffe" d="M 29.5,10.5 C 34.6226,12.0813 39.9559,12.748 45.5,12.5C 45.8174,15.5719 45.4841,18.5719 44.5,21.5C 43.8333,21.8333 43.1667,22.1667 42.5,22.5C 41.5344,20.604 41.2011,18.604 41.5,16.5C 37.7288,17.1508 34.0621,17.9842 30.5,19C 27.0015,16.514 26.6681,13.6807 29.5,10.5 Z"/></g>
<g><path style="opacity:0.786" fill="#fefffe" d="M 78.5,13.5 C 84.0001,12.8314 86.1667,15.1647 85,20.5C 81.4833,23.012 78.15,22.6786 75,19.5C 70.0162,22.889 67.8496,21.5556 68.5,15.5C 71.5184,15.6646 74.5184,15.498 77.5,15C 78.056,14.6174 78.3893,14.1174 78.5,13.5 Z"/></g>
<g><path style="opacity:0.76" fill="#fefffe" d="M 46.5,24.5 C 51.2474,24.1357 55.0807,25.8023 58,29.5C 65.9987,22.1936 72.832,23.1936 78.5,32.5C 88.3895,34.8981 93.2228,41.2314 93,51.5C 99.2914,59.0743 98.6247,66.0743 91,72.5C 90.6047,76.0189 89.6047,79.3522 88,82.5C 82.191,86.3121 77.0243,90.8121 72.5,96C 67.022,98.232 62.3554,97.0653 58.5,92.5C 50.1076,99.4836 43.1076,98.3169 37.5,89C 28.0312,86.5228 23.5312,80.3562 24,70.5C 17.6986,62.9857 18.1986,55.9857 25.5,49.5C 26.2209,41.5388 30.2209,36.0388 37.5,33C 39.1098,28.5531 42.1098,25.7198 46.5,24.5 Z M 46.5,29.5 C 48.1992,29.3398 49.8659,29.5065 51.5,30C 53.3083,32.8385 55.6417,35.0051 58.5,36.5C 59.4419,36.3918 60.2753,36.0585 61,35.5C 63.5032,28.7976 67.5032,27.7976 73,32.5C 73.3876,35.8492 73.2209,39.1825 72.5,42.5C 73.8734,42.6567 75.2068,42.49 76.5,42C 77.9477,38.2956 80.2811,37.6289 83.5,40C 87.0962,43.5576 88.2628,47.7243 87,52.5C 94.4946,58.6664 94.1613,64.3331 86,69.5C 86.2222,74.3224 84.7222,78.489 81.5,82C 79.4098,82.2677 78.0764,81.2677 77.5,79C 75.6297,77.6338 73.6297,76.4672 71.5,75.5C 70.1195,75.9996 69.4528,76.9996 69.5,78.5C 71.7795,80.6089 73.4462,83.1089 74.5,86C 73.3353,90.7492 70.3353,92.7492 65.5,92C 62.6792,89.8587 61.3459,87.0254 61.5,83.5C 59.8008,83.3398 58.1341,83.5065 56.5,84C 54.4219,92.0539 50.0886,93.8873 43.5,89.5C 42.4798,87.5675 42.3131,85.5675 43,83.5C 44.6667,82.1667 46.3333,80.8333 48,79.5C 48.5513,77.6467 47.8847,76.3133 46,75.5C 42.0565,77.1104 39.0565,79.7771 37,83.5C 30.9679,80.4428 28.3012,75.4428 29,68.5C 22.6657,62.1331 23.3323,56.4664 31,51.5C 30.5715,46.0249 32.5715,41.6915 37,38.5C 38.3296,42.0067 40.8296,43.6734 44.5,43.5C 44.5266,40.7702 43.8599,38.2702 42.5,36C 42.7225,33.0379 44.0558,30.8712 46.5,29.5 Z M 52.5,56.5 C 53.9313,57.7804 54.5979,59.4471 54.5,61.5C 53.325,61.719 52.325,61.3857 51.5,60.5C 52.2458,59.2638 52.5792,57.9305 52.5,56.5 Z"/></g>
<g><path style="opacity:0.769" fill="#fefffe" d="M 13.5,31.5 C 19.2407,32.9573 20.4074,35.9573 17,40.5C 16.5065,42.1341 16.3398,43.8008 16.5,45.5C 18.8333,45.5 21.1667,45.5 23.5,45.5C 23.8633,47.9115 22.8633,49.4115 20.5,50C 17.9009,50.769 15.4009,50.6023 13,49.5C 12.8531,44.956 12.0198,40.6227 10.5,36.5C 10.3227,34.0321 11.3227,32.3654 13.5,31.5 Z"/></g>
<g><path style="opacity:0.78" fill="#fefffe" d="M 99.5,31.5 C 104.151,32.2395 105.651,34.9062 104,39.5C 102.768,42.3004 102.101,45.3004 102,48.5C 99.9592,49.4231 97.7925,49.7564 95.5,49.5C 95.5,47.8333 95.5,46.1667 95.5,44.5C 96.5,44.5 97.5,44.5 98.5,44.5C 98.3219,41.6781 97.6552,39.0115 96.5,36.5C 96.3227,34.0321 97.3227,32.3654 99.5,31.5 Z"/></g>
<g><path style="opacity:0.843" fill="#fefffe" d="M 118.5,35.5 C 118.5,37.5 118.5,39.5 118.5,41.5C 117.883,41.6107 117.383,41.944 117,42.5C 116.501,47.4889 116.334,52.4889 116.5,57.5C 111.125,57.8282 105.792,57.4948 100.5,56.5C 100.167,55.8333 99.8333,55.1667 99.5,54.5C 103.783,53.5078 108.116,53.1744 112.5,53.5C 112.558,47.313 112.058,41.313 111,35.5C 113.498,34.2215 115.998,34.2215 118.5,35.5 Z"/></g>
<g><path style="opacity:0.834" fill="#fefffe" d="M 48.5,48.5 C 51.5719,48.1826 54.5719,48.5159 57.5,49.5C 60.1667,56.1667 62.8333,62.8333 65.5,69.5C 62.8333,70.8333 60.1667,70.8333 57.5,69.5C 55.5822,66.8941 52.9156,65.8941 49.5,66.5C 49.67,67.8221 49.3366,68.9887 48.5,70C 46.1902,70.4966 43.8568,70.6633 41.5,70.5C 43.8333,63.1667 46.1667,55.8333 48.5,48.5 Z M 52.5,56.5 C 52.5792,57.9305 52.2458,59.2638 51.5,60.5C 52.325,61.3857 53.325,61.719 54.5,61.5C 54.5979,59.4471 53.9313,57.7804 52.5,56.5 Z"/></g>
<g><path style="opacity:0.894" fill="#fefffe" d="M 66.5,48.5 C 68.8333,48.5 71.1667,48.5 73.5,48.5C 73.5,55.8333 73.5,63.1667 73.5,70.5C 71.1667,70.5 68.8333,70.5 66.5,70.5C 66.5,63.1667 66.5,55.8333 66.5,48.5 Z"/></g>
<g><path style="opacity:0.733" fill="#fefffe" d="M -0.5,59.5 C -0.5,57.5 -0.5,55.5 -0.5,53.5C 0.74213,52.9566 2.07546,52.6233 3.5,52.5C 7.60145,54.1811 11.9348,54.8478 16.5,54.5C 16.7135,56.1439 16.3802,57.6439 15.5,59C 11.2672,59.0745 7.26724,59.9079 3.5,61.5C 1.92714,61.2483 0.593804,60.5817 -0.5,59.5 Z"/></g>
<g><path style="opacity:0.742" fill="#fefffe" d="M 118.5,62.5 C 118.5,64.5 118.5,66.5 118.5,68.5C 117.183,68.821 115.849,69.1543 114.5,69.5C 109.656,67.921 104.656,67.0876 99.5,67C 100.167,65.6667 100.833,64.3333 101.5,63C 106.064,62.9507 110.397,62.1173 114.5,60.5C 116.073,60.7517 117.406,61.4183 118.5,62.5 Z"/></g>
<g><path style="opacity:0.837" fill="#fefffe" d="M -0.5,86.5 C -0.5,84.5 -0.5,82.5 -0.5,80.5C 0.117425,80.3893 0.617425,80.056 1,79.5C 1.49926,74.5111 1.66593,69.5111 1.5,64.5C 6.51108,64.3341 11.5111,64.5007 16.5,65C 17.3366,66.0113 17.67,67.1779 17.5,68.5C 13.5,68.5 9.5,68.5 5.5,68.5C 5.44221,74.687 5.94221,80.687 7,86.5C 4.50241,87.7785 2.00241,87.7785 -0.5,86.5 Z"/></g>
<g><path style="opacity:0.775" fill="#fefffe" d="M 95.5,71.5 C 98.7766,71.2161 101.943,71.5495 105,72.5C 105.534,77.9931 106.201,83.3264 107,88.5C 103.016,90.4854 100.183,89.4854 98.5,85.5C 100.874,82.9717 101.874,79.9717 101.5,76.5C 98.8333,76.5 96.1667,76.5 93.5,76.5C 93.3915,74.4862 94.0582,72.8195 95.5,71.5 Z"/></g>
<g><path style="opacity:0.792" fill="#fefffe" d="M 16.5,72.5 C 18.1667,72.5 19.8333,72.5 21.5,72.5C 21.5603,75.021 20.8936,77.3543 19.5,79.5C 21.2913,82.2475 21.7913,85.2475 21,88.5C 18.9361,89.5914 16.7695,89.7581 14.5,89C 13.9032,87.9383 13.5698,86.7716 13.5,85.5C 14.9043,81.2886 15.9043,76.9552 16.5,72.5 Z"/></g>
<g><path style="opacity:0.715" fill="#fefffe" d="M 40.5,122.5 C 38.5,122.5 36.5,122.5 34.5,122.5C 31.3169,118.253 32.3169,115.253 37.5,113.5C 41.9636,115.302 46.6303,115.968 51.5,115.5C 51.1718,110.125 51.5052,104.792 52.5,99.5C 53.5,98.8333 54.5,98.1667 55.5,97.5C 56.6646,104.811 56.8313,112.144 56,119.5C 50.4829,119.823 45.3162,120.823 40.5,122.5 Z"/></g>
<g><path style="opacity:0.815" fill="#fefffe" d="M 66.5,122.5 C 64.5,122.5 62.5,122.5 60.5,122.5C 59.9566,121.258 59.6233,119.925 59.5,118.5C 60.9976,112.005 61.9976,105.339 62.5,98.5C 63.4776,98.9767 64.3109,99.6433 65,100.5C 65.3333,105.167 65.6667,109.833 66,114.5C 69.1035,117.02 69.2702,119.687 66.5,122.5 Z"/></g>
<g><path style="opacity:0.785" fill="#fefffe" d="M 33.5,99.5 C 36.278,99.8057 38.778,100.806 41,102.5C 43.059,101.382 45.2257,100.715 47.5,100.5C 47.5,102.5 47.5,104.5 47.5,106.5C 42.3053,106.468 37.3053,106.968 32.5,108C 29.6655,104.695 29.9988,101.862 33.5,99.5 Z"/></g>
<g><path style="opacity:0.796" fill="#fefffe" d="M 72.5,99.5 C 74.3079,100.918 74.9746,102.918 74.5,105.5C 78.027,105.602 81.1936,104.602 84,102.5C 88.0843,103.225 89.4177,105.558 88,109.5C 87.044,110.894 85.7106,111.561 84,111.5C 79.7382,109.753 75.2382,109.087 70.5,109.5C 70.0604,105.821 70.727,102.488 72.5,99.5 Z"/></g>
</svg>
